# xmcd
#
# Track frame offsets:
#	150
#	13012
#	29784
#	46623
#	67605
#	86636
#	103400
#	118926
#	137348
#	154680
#	174140
#
# Disc length: 2626 seconds
#
# Revision: 0
# Processed by: cddbd v1.5.2PL0 Copyright (c) Steve Scherf et al.
# Submitted via: EasyCDDAExtractor 11.0.3.1
#
DISCID=840a400b
DTITLE=Jessica Simpson - Do You Know
DYEAR=2008
DGENRE=Country
TTITLE0=Come On Over
TTITLE1=Remember That
TTITLE2=Pray Out Loud
TTITLE3=You're My Sunday
TTITLE4=Sipping On History
TTITLE5=Still Beautiful
TTITLE6=Still Don't Stop Me
TTITLE7=When I Loved You Like That
TTITLE8=Might As Well Be Making Love
TTITLE9=Man Enough
TTITLE10=Do You Know (with Dolly Parton)
EXTD=
EXTT0=
EXTT1=
EXTT2=
EXTT3=
EXTT4=
EXTT5=
EXTT6=
EXTT7=
EXTT8=
EXTT9=
EXTT10=
PLAYORDER=
